<svg id="Capa_1" data-name="Capa 1" xmlns="http://www.w3.org/2000/svg" viewBox="0 0 12.76 11.06"><defs><style>.cls-1{fill:#1d1d1b;}</style></defs><path class="cls-1" d="M423.62,401.51v-3.27c0-.66.43-1,1.28-1s1.27.32,1.27,1v3.26a.75.75,0,0,1-.36.68,1.58,1.58,0,0,1-.91.24C424.05,402.42,423.62,402.12,423.62,401.51Zm1.46.05V398.1q0-.15-.18-.15c-.13,0-.19.05-.19.15v3.46c0,.11.06.16.19.16S425.08,401.67,425.08,401.56Z" transform="translate(-422.35 -397.26)"/><path class="cls-1" d="M429.81,402.38h-2.09V397.3h1.11v4.43h1Z" transform="translate(-422.35 -397.26)"/><path class="cls-1" d="M431.27,402.38V397.3h1.39a1.32,1.32,0,0,1,.81.25.84.84,0,0,1,.36.75v3.08a.88.88,0,0,1-.33.73,1.27,1.27,0,0,1-.83.27Zm1.44-.92v-3.24c0-.18-.11-.27-.32-.27v3.78C432.6,401.73,432.71,401.64,432.71,401.46Z" transform="translate(-422.35 -397.26)"/><path class="cls-1" d="M426.23,408.32h-1v-2.85l-.58,2.85h-.77l-.66-2.85v2.85h-.87v-5.08h1.43l.51,2.63.44-2.63h1.5Z" transform="translate(-422.35 -397.26)"/><path class="cls-1" d="M430.79,408.32h-1.1L429.5,407H429l-.19,1.37h-1.1l.83-5.08H430Zm-1.38-2.07-.16-1.52-.15,1.52Z" transform="translate(-422.35 -397.26)"/><path class="cls-1" d="M435.11,408.32H434l-.76-2.71v2.71h-.93v-5.08h1.27l.64,2.32v-2.32h.93Z" transform="translate(-422.35 -397.26)"/></svg>