<svg id="Capa_1" data-name="Capa 1" xmlns="http://www.w3.org/2000/svg" viewBox="0 0 188.06 75.3"><defs><style>.cls-1{fill:#fff;}</style></defs><path class="cls-1" d="M399.45,409.67V395.58q0-4.26,5.52-4.26t5.44,4.23v14.09a3.32,3.32,0,0,1-1.51,2.93,6.91,6.91,0,0,1-4,1C401.28,413.61,399.45,412.29,399.45,409.67Zm6.28.23V395c0-.44-.26-.65-.78-.65s-.81.21-.81.65V409.9c0,.43.27.65.81.65S405.73,410.33,405.73,409.9Z" transform="translate(-317.06 -360.31)"/><path class="cls-1" d="M426.13,413.41h-9V391.52h4.81V410.6h4.21Z" transform="translate(-317.06 -360.31)"/><path class="cls-1" d="M432.43,413.41V391.52h6a6,6,0,0,1,3.49,1.06,3.69,3.69,0,0,1,1.53,3.26v13.25a3.85,3.85,0,0,1-1.43,3.18,5.54,5.54,0,0,1-3.56,1.14Zm6.18-4v-14c0-.76-.46-1.14-1.37-1.14V410.6C438.15,410.6,438.61,410.21,438.61,409.44Z" transform="translate(-317.06 -360.31)"/><path class="cls-1" d="M466.81,413.41h-4.28V401.12L460,413.41h-3.31l-2.87-12.29v12.29h-3.75V391.52h6.18l2.2,11.35,1.9-11.35h6.44Z" transform="translate(-317.06 -360.31)"/><path class="cls-1" d="M486.5,413.41h-4.76l-.82-5.88h-2.13l-.82,5.88H473.2l3.6-21.89h6.1Zm-6-8.92-.7-6.53-.65,6.53Z" transform="translate(-317.06 -360.31)"/><path class="cls-1" d="M505.12,413.41h-4.95l-3.26-11.67v11.67h-4V391.52h5.47l2.74,10v-10h4Z" transform="translate(-317.06 -360.31)"/><path class="cls-1" d="M430.61,422.82v3.25h-1.9v-8.84h2a4.18,4.18,0,0,1,1.81.31,1.3,1.3,0,0,1,.58,1.26v2.45a1.44,1.44,0,0,1-.48,1.23A3.77,3.77,0,0,1,430.61,422.82Zm.64-1.74V419c0-.31-.21-.46-.64-.46v3.05C431,421.55,431.25,421.4,431.25,421.08Z" transform="translate(-317.06 -360.31)"/><path class="cls-1" d="M440.81,426.08h-1.94a4.19,4.19,0,0,1-.31-2.13h0v-.53c0-.74,0-1.11,0-1.13,0-.3-.2-.45-.61-.45v4.24H436v-8.84h2.4a2.68,2.68,0,0,1,1.43.38,1.3,1.3,0,0,1,.6,1.19v1.06a1.42,1.42,0,0,1-1.2,1.39,1.39,1.39,0,0,1,1.21,1.46l0,1Q440.45,425.79,440.81,426.08Zm-2.23-5.79v-1.46c0-.31-.2-.46-.6-.46v2.39C438.38,420.76,438.58,420.6,438.58,420.29Z" transform="translate(-317.06 -360.31)"/><path class="cls-1" d="M447.39,426.07H443.6v-8.84h3.77v1.14h-1.83v2.39h1.65v1.07h-1.65v3.1h1.85Z" transform="translate(-317.06 -360.31)"/><path class="cls-1" d="M457,426.07h-1.73v-5l-1,5h-1.34l-1.16-5v5h-1.51v-8.84h2.49l.89,4.59.77-4.59H457Z" transform="translate(-317.06 -360.31)"/><path class="cls-1" d="M461.86,426.07h-1.94v-8.84h1.94Z" transform="translate(-317.06 -360.31)"/><path class="cls-1" d="M464.76,417.23h1.94v7.42q0,.27.33.27c.21,0,.32-.09.32-.27v-7.42h1.94v7.32a1.34,1.34,0,0,1-.63,1.18,2.92,2.92,0,0,1-1.63.42,3.22,3.22,0,0,1-1.59-.38,1.28,1.28,0,0,1-.68-1.21Z" transform="translate(-317.06 -360.31)"/><path class="cls-1" d="M479,426.07h-1.73v-5l-1,5h-1.34l-1.16-5v5h-1.51v-8.84h2.49l.89,4.59.77-4.59H479Z" transform="translate(-317.06 -360.31)"/><path class="cls-1" d="M318.6,425.91h-1.54v-3.6h1.53v.46h-.74v1h.67v.43h-.67v1.27h.75Z" transform="translate(-317.06 -360.31)"/><path class="cls-1" d="M319.75,424.47h.72v.82c0,.08,0,.13.15.13s.14-.05.14-.13v-.42a.69.69,0,0,0-.26-.46,8,8,0,0,1-.62-.66.62.62,0,0,1-.13-.37V423c0-.47.31-.7.92-.7s.82.21.82.64v.62h-.72v-.66c0-.08,0-.11-.12-.11s-.14.07-.14.21v.23a.75.75,0,0,0,.27.47,5.3,5.3,0,0,1,.63.66.68.68,0,0,1,.13.42v.46c0,.48-.3.72-.91.72s-.89-.22-.89-.65Z" transform="translate(-317.06 -360.31)"/><path class="cls-1" d="M324.4,422.78H324v3.13h-.78v-3.13h-.45v-.47h1.68Z" transform="translate(-317.06 -360.31)"/><path class="cls-1" d="M325.56,425.91v-3.6h1a1,1,0,0,1,.57.18.58.58,0,0,1,.25.53v2.18a.64.64,0,0,1-.23.52,1,1,0,0,1-.59.19Zm1-.65V423c0-.12-.08-.19-.23-.19v2.68C326.5,425.45,326.58,425.38,326.58,425.26Z" transform="translate(-317.06 -360.31)"/><path class="cls-1" d="M368.57,384c-10.33-7-20.33-7.17-30.49-.28a4.65,4.65,0,0,1-.16-1.14c.64-5.63,1.6-11.21,4.16-16.31a23.17,23.17,0,0,1,4.31-5.49,3.29,3.29,0,0,1,2.78-.23,10.87,10.87,0,0,0,8.05-.06,2.84,2.84,0,0,1,2.45.14,17.66,17.66,0,0,1,3.87,4.33C366.75,370.69,367.74,377.05,368.57,384Z" transform="translate(-317.06 -360.31)"/><path class="cls-1" d="M338.67,390.74,336,386.17c10.1-8.83,22.85-8.93,33.7-.1l-2.64,4.63C357.61,384.36,348.16,383.43,338.67,390.74Z" transform="translate(-317.06 -360.31)"/><path class="cls-1" d="M344.59,390c2.25.6,4.47,1.29,6.75,1.76a5.33,5.33,0,0,0,3.22-.08c3.13-1.56,6.41-1.19,9.67-1.18,1.67,0,2.18,1.08,2,2.49-.49,4.41-3.23,6.64-7.59,6.47-2.14-.08-3.07-1.3-3.81-3.08a15,15,0,0,0-1.88-2.74,12.76,12.76,0,0,0-2,2.64c-.74,1.88-1.7,3.24-3.94,3.16s-4.82,0-6.05-2.7c-.09-.18-.19-.35-.27-.53C338.51,391.25,339.11,390.33,344.59,390Z" transform="translate(-317.06 -360.31)"/><path class="cls-1" d="M370.68,402.18c-5.51-3.24-10.85-3-16.23,0a2.65,2.65,0,0,1-3,0c-5.37-3.07-10.71-3.32-16.23-.09-3.84,2.25-8,3.64-12.58,2,5.55,4.5,11.39,7.61,19,4-.13,1.25-.23,2.16-.32,3.07a80.62,80.62,0,0,0-.88,9c0,8.08,4.41,12.69,11.84,15.3a3.12,3.12,0,0,0,1.87-.17c8.39-2.87,12.33-9.27,11.23-18.19-.36-2.92-.75-5.84-1.14-8.85,8,2.29,14.94.68,18.91-4.29C378.6,405.75,374.47,404.42,370.68,402.18Zm-24.45,7.74c3.8-4,9.35-4,13.48-.05A28.71,28.71,0,0,1,346.23,409.92Z" transform="translate(-317.06 -360.31)"/><path class="cls-1" d="M379.73,425.91h-1.62v-.48l.8-1.63a1.63,1.63,0,0,0,.13-.72c0-.17-.05-.25-.14-.25a.13.13,0,0,0-.15.15v.62h-.64V423q0-.69.81-.69a.7.7,0,0,1,.65.26,1.55,1.55,0,0,1,.16.83,1,1,0,0,1-.06.38l-.81,1.7h.87Z" transform="translate(-317.06 -360.31)"/><path class="cls-1" d="M380.78,425.29V423c0-.47.28-.7.84-.7s.82.23.82.69v2.32a.54.54,0,0,1-.23.48,1,1,0,0,1-.59.17,1,1,0,0,1-.61-.17A.56.56,0,0,1,380.78,425.29Zm1,0v-2.45a.1.1,0,0,0-.11-.11c-.08,0-.12,0-.12.11v2.45c0,.07,0,.11.12.11A.1.1,0,0,0,381.73,425.33Z" transform="translate(-317.06 -360.31)"/><path class="cls-1" d="M385.12,425.91H383.5v-.48l.79-1.63a1.62,1.62,0,0,0,.14-.72c0-.17-.05-.25-.15-.25a.13.13,0,0,0-.15.15v.62h-.63V423c0-.46.26-.69.8-.69a.73.73,0,0,1,.66.26,1.55,1.55,0,0,1,.16.83.86.86,0,0,1-.07.38l-.8,1.7h.87Z" transform="translate(-317.06 -360.31)"/><path class="cls-1" d="M387.78,425.91h-1.62v-.48l.8-1.63a1.63,1.63,0,0,0,.13-.72c0-.17,0-.25-.14-.25a.13.13,0,0,0-.15.15v.62h-.64V423c0-.46.27-.69.8-.69a.73.73,0,0,1,.66.26,1.55,1.55,0,0,1,.16.83.86.86,0,0,1-.07.38l-.8,1.7h.87Z" transform="translate(-317.06 -360.31)"/></svg>