<svg xmlns="http://www.w3.org/2000/svg" viewBox="0 0 24.51 5.17"><defs><style>.cls-1{fill:#1d1d1b;}</style></defs><g id="Capa_2" data-name="Capa 2"><g id="Capa_1-2" data-name="Capa 1"><path class="cls-1" d="M0,4.26V1C0,.33.43,0,1.28,0S2.54.33,2.54,1V4.25a.79.79,0,0,1-.35.68,1.59,1.59,0,0,1-.92.24C.42,5.17,0,4.86,0,4.26Zm1.46,0V.85c0-.1-.07-.15-.19-.15s-.18.05-.18.15V4.31q0,.15.18.15C1.39,4.46,1.46,4.41,1.46,4.31Z"/><path class="cls-1" d="M6.19,5.12H4.09V.05H5.21V4.47h1Z"/><path class="cls-1" d="M7.65,5.12V.05H9a1.43,1.43,0,0,1,.81.24.86.86,0,0,1,.35.76V4.12a.9.9,0,0,1-.33.74,1.3,1.3,0,0,1-.82.26ZM9.08,4.2V1C9.08.79,9,.7,8.76.7V4.47C9,4.47,9.08,4.38,9.08,4.2Z"/><path class="cls-1" d="M15.62,5.12h-1V2.27l-.58,2.85h-.77l-.67-2.85V5.12h-.87V.05h1.44l.51,2.63L14.13.05h1.49Z"/><path class="cls-1" d="M20.19,5.12H19.08L18.9,3.76h-.5l-.19,1.36H17.1L17.94.05h1.41ZM18.81,3.06l-.16-1.52-.16,1.52Z"/><path class="cls-1" d="M24.51,5.12H23.36l-.76-2.7v2.7h-.93V.05h1.27l.64,2.31V.05h.93Z"/></g></g></svg>